<svg xmlns="http://www.w3.org/2000/svg" viewBox="0 0 423.642 423.642"><path d="M342.369 37.498h43.755v-30H272.128v113.995h30V46.501c78.268 44.711 113.054 141.985 77.673 227.401-28.973 69.949-96.829 112.248-168.216 112.242-23.142-.002-46.667-4.45-69.343-13.842-44.869-18.586-79.815-53.532-98.4-98.401-18.585-44.869-18.585-94.29 0-139.159l-27.717-11.48c-44.696 107.907 6.729 232.059 114.636 276.756 26.424 10.945 53.818 16.126 80.784 16.125 83.158-.001 162.221-49.278 195.972-130.762 37.175-89.744 7.851-190.719-65.148-247.883z"/></svg>