<?xml version="1.0" encoding="UTF-8" standalone="no"?>

<svg xmlns="http://www.w3.org/2000/svg" viewBox="0 0 381.74471 115.51596">
   <path d="M 188.28516 0 A 212.5 212.5 0 0 0 17.986328 85.816406 A 15 15 0 0 0 15 85.515625 A 15 15 0 0 0 0 100.51562 A 15 15 0 0 0 15 115.51562 A 15 15 0 0 0 30 100.51562 A 15 15 0 0 0 28.160156 93.349609 A 200 200 0 0 1 188.28516 12.5 A 200 200 0 0 1 352.34375 98.53125 L 314.93555 90.515625 L 312.31641 102.73828 L 369.06055 114.89844 L 381.74414 55.707031 L 369.52148 53.087891 L 361.55664 90.267578 A 212.5 212.5 0 0 0 188.28516 0 z "/>
</svg>